<?xml version="1.0" encoding="UTF-8" standalone="no"?>
<!DOCTYPE svg PUBLIC "-//W3C//DTD SVG 1.1//EN"
 "http://www.w3.org/Graphics/SVG/1.1/DTD/svg11.dtd">
<!-- Generated by graphviz version 2.50.0 (0)
 -->
<!-- Title: G Pages: 1 -->
<svg width="493pt" height="699pt"
 viewBox="0.00 0.00 492.56 698.64" xmlns="http://www.w3.org/2000/svg" xmlns:xlink="http://www.w3.org/1999/xlink">
<g id="graph0" class="graph" transform="scale(1 1) rotate(0) translate(4 694.64)">
<title>G</title><style>.edge>path:hover{stroke-width:8}</style>
<polygon fill="white" stroke="transparent" points="-4,4 -4,-694.64 488.56,-694.64 488.56,4 -4,4"/>
<!-- build_rawdata -->
<g id="node1" class="node">
<title>build_rawdata</title><style>.edge>path:hover{stroke-width:8}</style>
<ellipse fill="#f90606" stroke="black" cx="50.63" cy="-575.44" rx="50.75" ry="18"/>
<text text-anchor="middle" x="50.63" y="-572.94" font-family="Helvetica,sans-Serif" font-size="10.00" fill="#ffffff">build_rawdata</text>
</g>
<!-- build_rawdata__version -->
<g id="node2" class="node">
<title>build_rawdata__version</title><style>.edge>path:hover{stroke-width:8}</style>
<ellipse fill="#e72222" stroke="black" cx="178.63" cy="-497.01" rx="62.87" ry="21.43"/>
<text text-anchor="middle" x="178.63" y="-500.01" font-family="Helvetica,sans-Serif" font-size="10.00" fill="#ffffff">build_rawdata.</text>
<text text-anchor="middle" x="178.63" y="-489.01" font-family="Helvetica,sans-Serif" font-size="10.00" fill="#ffffff">_version</text>
</g>
<!-- build_rawdata__version&#45;&gt;build_rawdata -->
<g id="edge1" class="edge">
<title>build_rawdata__version&#45;&gt;build_rawdata</title><style>.edge>path:hover{stroke-width:8}</style>
<path fill="none" stroke="black" d="M148.94,-515.74C129.6,-527.29 104.32,-542.38 84.24,-554.37"/>
<polygon fill="#e72222" stroke="black" points="82.21,-551.51 75.42,-559.64 85.8,-557.52 82.21,-551.51"/>
</g>
<!-- build_rawdata_cli_run_emorep -->
<g id="node3" class="node">
<title>build_rawdata_cli_run_emorep</title><style>.edge>path:hover{stroke-width:8}</style>
<ellipse fill="#964040" stroke="black" cx="322.63" cy="-661.65" rx="62.87" ry="28.98"/>
<text text-anchor="middle" x="322.63" y="-670.15" font-family="Helvetica,sans-Serif" font-size="10.00" fill="#ffffff">build_rawdata.</text>
<text text-anchor="middle" x="322.63" y="-659.15" font-family="Helvetica,sans-Serif" font-size="10.00" fill="#ffffff">cli.</text>
<text text-anchor="middle" x="322.63" y="-648.15" font-family="Helvetica,sans-Serif" font-size="10.00" fill="#ffffff">run_emorep</text>
</g>
<!-- build_rawdata__version&#45;&gt;build_rawdata_cli_run_emorep -->
<g id="edge2" class="edge">
<title>build_rawdata__version&#45;&gt;build_rawdata_cli_run_emorep</title><style>.edge>path:hover{stroke-width:8}</style>
<path fill="none" stroke="black" d="M280.63,-576.44C285.53,-592.88 293.48,-610 301.15,-624.47"/>
<polygon fill="#e72222" stroke="black" points="298.25,-626.47 306.11,-633.57 304.4,-623.12 298.25,-626.47"/>
</g>
<!-- build_rawdata_cli_run_nki -->
<g id="node4" class="node">
<title>build_rawdata_cli_run_nki</title><style>.edge>path:hover{stroke-width:8}</style>
<ellipse fill="#a44646" stroke="black" cx="178.63" cy="-661.65" rx="62.87" ry="28.98"/>
<text text-anchor="middle" x="178.63" y="-670.15" font-family="Helvetica,sans-Serif" font-size="10.00" fill="#ffffff">build_rawdata.</text>
<text text-anchor="middle" x="178.63" y="-659.15" font-family="Helvetica,sans-Serif" font-size="10.00" fill="#ffffff">cli.</text>
<text text-anchor="middle" x="178.63" y="-648.15" font-family="Helvetica,sans-Serif" font-size="10.00" fill="#ffffff">run_nki</text>
</g>
<!-- build_rawdata__version&#45;&gt;build_rawdata_cli_run_nki -->
<g id="edge3" class="edge">
<title>build_rawdata__version&#45;&gt;build_rawdata_cli_run_nki</title><style>.edge>path:hover{stroke-width:8}</style>
<path fill="none" stroke="black" d="M218.9,-513.51C243.56,-525.69 271.98,-545.5 280.63,-574.44"/>
<path fill="none" stroke="black" d="M280.63,-576.44C288.89,-604.12 264.41,-624.92 237.37,-638.93"/>
<polygon fill="#e72222" stroke="black" points="235.6,-635.9 228.14,-643.42 238.66,-642.19 235.6,-635.9"/>
</g>
<!-- build_rawdata_entrypoint -->
<g id="node5" class="node">
<title>build_rawdata_entrypoint</title><style>.edge>path:hover{stroke-width:8}</style>
<ellipse fill="#ac4949" stroke="black" cx="182.63" cy="-575.44" rx="62.87" ry="21.43"/>
<text text-anchor="middle" x="182.63" y="-578.44" font-family="Helvetica,sans-Serif" font-size="10.00" fill="#ffffff">build_rawdata.</text>
<text text-anchor="middle" x="182.63" y="-567.44" font-family="Helvetica,sans-Serif" font-size="10.00" fill="#ffffff">entrypoint</text>
</g>
<!-- build_rawdata__version&#45;&gt;build_rawdata_entrypoint -->
<g id="edge4" class="edge">
<title>build_rawdata__version&#45;&gt;build_rawdata_entrypoint</title><style>.edge>path:hover{stroke-width:8}</style>
<path fill="none" stroke="black" d="M179.7,-518.5C180.11,-526.35 180.59,-535.5 181.04,-544.09"/>
<polygon fill="#e72222" stroke="black" points="177.55,-544.36 181.56,-554.17 184.54,-544 177.55,-544.36"/>
</g>
<!-- build_rawdata_reference_files -->
<g id="node6" class="node">
<title>build_rawdata_reference_files</title><style>.edge>path:hover{stroke-width:8}</style>
<ellipse fill="#c24747" stroke="black" cx="205.63" cy="-21.21" rx="62.87" ry="21.43"/>
<text text-anchor="middle" x="205.63" y="-24.21" font-family="Helvetica,sans-Serif" font-size="10.00" fill="#ffffff">build_rawdata.</text>
<text text-anchor="middle" x="205.63" y="-13.21" font-family="Helvetica,sans-Serif" font-size="10.00" fill="#ffffff">reference_files</text>
</g>
<!-- build_rawdata_resources_unique_cases -->
<g id="node12" class="node">
<title>build_rawdata_resources_unique_cases</title><style>.edge>path:hover{stroke-width:8}</style>
<ellipse fill="#c43131" stroke="black" cx="205.63" cy="-144.42" rx="62.87" ry="28.98"/>
<text text-anchor="middle" x="205.63" y="-152.92" font-family="Helvetica,sans-Serif" font-size="10.00" fill="#ffffff">build_rawdata.</text>
<text text-anchor="middle" x="205.63" y="-141.92" font-family="Helvetica,sans-Serif" font-size="10.00" fill="#ffffff">resources.</text>
<text text-anchor="middle" x="205.63" y="-130.92" font-family="Helvetica,sans-Serif" font-size="10.00" fill="#ffffff">unique_cases</text>
</g>
<!-- build_rawdata_reference_files&#45;&gt;build_rawdata_resources_unique_cases -->
<g id="edge5" class="edge">
<title>build_rawdata_reference_files&#45;&gt;build_rawdata_resources_unique_cases</title><style>.edge>path:hover{stroke-width:8}</style>
<path fill="none" stroke="black" d="M205.63,-42.5C205.63,-59.56 205.63,-84.43 205.63,-105.21"/>
<polygon fill="#c24747" stroke="black" points="202.13,-105.34 205.63,-115.34 209.13,-105.34 202.13,-105.34"/>
</g>
<!-- build_rawdata_resources -->
<g id="node7" class="node">
<title>build_rawdata_resources</title><style>.edge>path:hover{stroke-width:8}</style>
<ellipse fill="#f31616" stroke="black" cx="322.63" cy="-418.59" rx="62.87" ry="21.43"/>
<text text-anchor="middle" x="322.63" y="-421.59" font-family="Helvetica,sans-Serif" font-size="10.00" fill="#ffffff">build_rawdata.</text>
<text text-anchor="middle" x="322.63" y="-410.59" font-family="Helvetica,sans-Serif" font-size="10.00" fill="#ffffff">resources</text>
</g>
<!-- build_rawdata_resources&#45;&gt;build_rawdata_cli_run_emorep -->
<g id="edge6" class="edge">
<title>build_rawdata_resources&#45;&gt;build_rawdata_cli_run_emorep</title><style>.edge>path:hover{stroke-width:8}</style>
<path fill="none" stroke="black" d="M358.57,-436.08C380.74,-448.75 406.28,-468.72 413.63,-496.01"/>
<path fill="none" stroke="black" d="M413.63,-498.01C426.82,-547.04 389.64,-597.07 358.9,-628.45"/>
<polygon fill="#f31616" stroke="black" points="356.29,-626.1 351.65,-635.63 361.22,-631.07 356.29,-626.1"/>
</g>
<!-- build_rawdata_workflows -->
<g id="node13" class="node">
<title>build_rawdata_workflows</title><style>.edge>path:hover{stroke-width:8}</style>
<ellipse fill="#bc2f2f" stroke="black" cx="322.63" cy="-497.01" rx="62.87" ry="21.43"/>
<text text-anchor="middle" x="322.63" y="-500.01" font-family="Helvetica,sans-Serif" font-size="10.00" fill="#ffffff">build_rawdata.</text>
<text text-anchor="middle" x="322.63" y="-489.01" font-family="Helvetica,sans-Serif" font-size="10.00" fill="#ffffff">workflows</text>
</g>
<!-- build_rawdata_resources&#45;&gt;build_rawdata_workflows -->
<g id="edge7" class="edge">
<title>build_rawdata_resources&#45;&gt;build_rawdata_workflows</title><style>.edge>path:hover{stroke-width:8}</style>
<path fill="none" stroke="black" d="M322.63,-440.07C322.63,-447.93 322.63,-457.07 322.63,-465.66"/>
<polygon fill="#f31616" stroke="black" points="319.13,-465.74 322.63,-475.74 326.13,-465.74 319.13,-465.74"/>
</g>
<!-- build_rawdata_resources_behavior -->
<g id="node8" class="node">
<title>build_rawdata_resources_behavior</title><style>.edge>path:hover{stroke-width:8}</style>
<ellipse fill="#b03a3a" stroke="black" cx="133.63" cy="-238.4" rx="62.87" ry="28.98"/>
<text text-anchor="middle" x="133.63" y="-246.9" font-family="Helvetica,sans-Serif" font-size="10.00" fill="#ffffff">build_rawdata.</text>
<text text-anchor="middle" x="133.63" y="-235.9" font-family="Helvetica,sans-Serif" font-size="10.00" fill="#ffffff">resources.</text>
<text text-anchor="middle" x="133.63" y="-224.9" font-family="Helvetica,sans-Serif" font-size="10.00" fill="#ffffff">behavior</text>
</g>
<!-- build_rawdata_resources_emorep -->
<g id="node10" class="node">
<title>build_rawdata_resources_emorep</title><style>.edge>path:hover{stroke-width:8}</style>
<ellipse fill="#a13535" stroke="black" cx="277.63" cy="-332.38" rx="62.87" ry="28.98"/>
<text text-anchor="middle" x="277.63" y="-340.88" font-family="Helvetica,sans-Serif" font-size="10.00" fill="#ffffff">build_rawdata.</text>
<text text-anchor="middle" x="277.63" y="-329.88" font-family="Helvetica,sans-Serif" font-size="10.00" fill="#ffffff">resources.</text>
<text text-anchor="middle" x="277.63" y="-318.88" font-family="Helvetica,sans-Serif" font-size="10.00" fill="#ffffff">emorep</text>
</g>
<!-- build_rawdata_resources_behavior&#45;&gt;build_rawdata_resources_emorep -->
<g id="edge8" class="edge">
<title>build_rawdata_resources_behavior&#45;&gt;build_rawdata_resources_emorep</title><style>.edge>path:hover{stroke-width:8}</style>
<path fill="none" stroke="black" d="M169.59,-262.37C188.83,-274.67 212.7,-289.91 233.11,-302.95"/>
<polygon fill="#b03a3a" stroke="black" points="231.31,-305.95 241.62,-308.38 235.08,-300.05 231.31,-305.95"/>
</g>
<!-- build_rawdata_resources_bidsify -->
<g id="node9" class="node">
<title>build_rawdata_resources_bidsify</title><style>.edge>path:hover{stroke-width:8}</style>
<ellipse fill="#bc2f2f" stroke="black" cx="277.63" cy="-238.4" rx="62.87" ry="28.98"/>
<text text-anchor="middle" x="277.63" y="-246.9" font-family="Helvetica,sans-Serif" font-size="10.00" fill="#ffffff">build_rawdata.</text>
<text text-anchor="middle" x="277.63" y="-235.9" font-family="Helvetica,sans-Serif" font-size="10.00" fill="#ffffff">resources.</text>
<text text-anchor="middle" x="277.63" y="-224.9" font-family="Helvetica,sans-Serif" font-size="10.00" fill="#ffffff">bidsify</text>
</g>
<!-- build_rawdata_resources_bidsify&#45;&gt;build_rawdata_cli_run_emorep -->
<g id="edge9" class="edge">
<title>build_rawdata_resources_bidsify&#45;&gt;build_rawdata_cli_run_emorep</title><style>.edge>path:hover{stroke-width:8}</style>
<path fill="none" stroke="black" d="M310.01,-263.46C323.44,-274.56 338.46,-288.56 349.63,-303.39 403.89,-375.46 397.96,-407.17 413.63,-496.01"/>
</g>
<!-- build_rawdata_resources_bidsify&#45;&gt;build_rawdata_resources_emorep -->
<g id="edge10" class="edge">
<title>build_rawdata_resources_bidsify&#45;&gt;build_rawdata_resources_emorep</title><style>.edge>path:hover{stroke-width:8}</style>
<path fill="none" stroke="black" d="M277.63,-267.5C277.63,-275.54 277.63,-284.44 277.63,-292.98"/>
<polygon fill="#bc2f2f" stroke="black" points="274.13,-293.14 277.63,-303.14 281.13,-293.14 274.13,-293.14"/>
</g>
<!-- build_rawdata_resources_emorep&#45;&gt;build_rawdata_workflows -->
<g id="edge11" class="edge">
<title>build_rawdata_resources_emorep&#45;&gt;build_rawdata_workflows</title><style>.edge>path:hover{stroke-width:8}</style>
<path fill="none" stroke="black" d="M260.66,-360.69C249.21,-382.84 238.25,-414.45 250.63,-439.8 257.24,-453.35 268.87,-464.59 280.87,-473.36"/>
<polygon fill="#a13535" stroke="black" points="278.96,-476.29 289.19,-479.04 282.91,-470.51 278.96,-476.29"/>
</g>
<!-- build_rawdata_resources_process -->
<g id="node11" class="node">
<title>build_rawdata_resources_process</title><style>.edge>path:hover{stroke-width:8}</style>
<ellipse fill="#c04040" stroke="black" cx="421.63" cy="-238.4" rx="62.87" ry="28.98"/>
<text text-anchor="middle" x="421.63" y="-246.9" font-family="Helvetica,sans-Serif" font-size="10.00" fill="#ffffff">build_rawdata.</text>
<text text-anchor="middle" x="421.63" y="-235.9" font-family="Helvetica,sans-Serif" font-size="10.00" fill="#ffffff">resources.</text>
<text text-anchor="middle" x="421.63" y="-224.9" font-family="Helvetica,sans-Serif" font-size="10.00" fill="#ffffff">process</text>
</g>
<!-- build_rawdata_resources_process&#45;&gt;build_rawdata_resources_emorep -->
<g id="edge12" class="edge">
<title>build_rawdata_resources_process&#45;&gt;build_rawdata_resources_emorep</title><style>.edge>path:hover{stroke-width:8}</style>
<path fill="none" stroke="black" d="M385.66,-262.37C366.42,-274.67 342.55,-289.91 322.14,-302.95"/>
<polygon fill="#c04040" stroke="black" points="320.17,-300.05 313.63,-308.38 323.94,-305.95 320.17,-300.05"/>
</g>
<!-- build_rawdata_resources_unique_cases&#45;&gt;build_rawdata_resources_behavior -->
<g id="edge13" class="edge">
<title>build_rawdata_resources_unique_cases&#45;&gt;build_rawdata_resources_behavior</title><style>.edge>path:hover{stroke-width:8}</style>
<path fill="none" stroke="black" d="M184.8,-172.02C177.26,-181.65 168.64,-192.67 160.65,-202.88"/>
<polygon fill="#c43131" stroke="black" points="157.81,-200.82 154.4,-210.86 163.32,-205.14 157.81,-200.82"/>
</g>
<!-- build_rawdata_resources_unique_cases&#45;&gt;build_rawdata_resources_bidsify -->
<g id="edge14" class="edge">
<title>build_rawdata_resources_unique_cases&#45;&gt;build_rawdata_resources_bidsify</title><style>.edge>path:hover{stroke-width:8}</style>
<path fill="none" stroke="black" d="M226.45,-172.02C233.99,-181.65 242.61,-192.67 250.6,-202.88"/>
<polygon fill="#c43131" stroke="black" points="247.93,-205.14 256.85,-210.86 253.44,-200.82 247.93,-205.14"/>
</g>
<!-- build_rawdata_workflows&#45;&gt;build_rawdata_cli_run_emorep -->
<g id="edge15" class="edge">
<title>build_rawdata_workflows&#45;&gt;build_rawdata_cli_run_emorep</title><style>.edge>path:hover{stroke-width:8}</style>
<path fill="none" stroke="black" d="M322.63,-576.44C317.41,-590.82 316.46,-607.5 317.15,-622.21"/>
<polygon fill="#bc2f2f" stroke="black" points="313.69,-622.8 317.92,-632.51 320.67,-622.28 313.69,-622.8"/>
</g>
<!-- build_rawdata_workflows&#45;&gt;build_rawdata_cli_run_nki -->
<g id="edge16" class="edge">
<title>build_rawdata_workflows&#45;&gt;build_rawdata_cli_run_nki</title><style>.edge>path:hover{stroke-width:8}</style>
<path fill="none" stroke="black" d="M326.32,-518.46C328.31,-534.24 329.18,-556.35 322.63,-574.44"/>
<path fill="none" stroke="black" d="M322.63,-576.44C315.57,-595.89 271.53,-619.86 233.99,-637.25"/>
<polygon fill="#bc2f2f" stroke="black" points="232.26,-634.19 224.61,-641.52 235.16,-640.56 232.26,-634.19"/>
</g>
<!-- pydeface -->
<g id="node14" class="node">
<title>pydeface</title><style>.edge>path:hover{stroke-width:8}</style>
<ellipse fill="#53b6b6" stroke="black" cx="421.63" cy="-21.21" rx="36.49" ry="18"/>
<text text-anchor="middle" x="421.63" y="-18.71" font-family="Helvetica,sans-Serif" font-size="10.00" fill="#000000">pydeface</text>
</g>
<!-- pydeface&#45;&gt;build_rawdata_resources_process -->
<g id="edge17" class="edge">
<title>pydeface&#45;&gt;build_rawdata_resources_process</title><style>.edge>path:hover{stroke-width:8}</style>
<path fill="none" stroke="black" d="M421.63,-39.46C421.63,-73.86 421.63,-151.74 421.63,-198.91"/>
<polygon fill="#53b6b6" stroke="black" points="418.13,-199.05 421.63,-209.05 425.13,-199.05 418.13,-199.05"/>
</g>
</g>
</svg>
